<svg width="19" height="17" fill="none" xmlns="http://www.w3.org/2000/svg"><path d="M9.501 3.953 8.137 2.557v-.001a3.737 3.737 0 0 0-5.334 0 3.875 3.875 0 0 0 0 5.438l6.475 6.557.223.225.222-.225 6.475-6.556a3.875 3.875 0 0 0 0-5.439 3.732 3.732 0 0 0-2.666-1.119v.313m-4.03 2.203 1.356-1.384.224.219m-1.58 1.165 1.355-1.383M9.501 3.953l1.356-1.383m2.675-.82a3.4 3.4 0 0 0-2.45 1.038m2.45-1.038a3.419 3.419 0 0 1 2.444 1.025L13.532 1.75Zm-2.45 1.038-.225-.218m.225.218-.225-.218M13.532.813a4.369 4.369 0 0 1 3.115 1.306 4.512 4.512 0 0 1 0 6.324L9.5 15.68 2.355 8.444a4.512 4.512 0 0 1 0-6.325 4.369 4.369 0 0 1 6.23 0v.001l.694.7.222.224.222-.224.693-.7.002-.001A4.357 4.357 0 0 1 13.532.813Z" fill="#BDBDBD" stroke="#252B42" stroke-width=".625"/></svg>