<svg width="20" height="19" fill="none" xmlns="http://www.w3.org/2000/svg"><path d="M.5.633A.633.633 0 0 1 1.133 0h1.9a.633.633 0 0 1 .615.48l.513 2.053h14.706a.633.633 0 0 1 .622.75l-1.9 10.133a.633.633 0 0 1-.622.517h-11.4a.633.633 0 0 1-.622-.517L3.046 3.302 2.54 1.267H1.133A.633.633 0 0 1 .5.633ZM4.43 3.8l1.663 8.867h10.349L18.105 3.8H4.429Zm2.404 10.133a2.533 2.533 0 1 0 0 5.067 2.533 2.533 0 0 0 0-5.067Zm8.867 0a2.533 2.533 0 1 0 0 5.067 2.533 2.533 0 0 0 0-5.067ZM6.833 15.2a1.267 1.267 0 1 1 0 2.534 1.267 1.267 0 0 1 0-2.534Zm8.867 0a1.267 1.267 0 1 1 0 2.534 1.267 1.267 0 0 1 0-2.534Z" fill="#252B42"/></svg>