<svg width="24" height="26" fill="none" xmlns="http://www.w3.org/2000/svg"><g clip-path="url(#a)"><path fill-rule="evenodd" clip-rule="evenodd" d="M-.919 5.717A3.345 3.345 0 0 1 .223 3.852a3.2 3.2 0 0 1 2.027-.727h19.5a3.2 3.2 0 0 1 2.026.727c.576.471.979 1.128 1.143 1.865L12 13.815-.919 5.717ZM-1 7.62v11.84l9.43-5.93L-1 7.62Zm10.987 6.888L-.69 21.22c.264.57.68 1.052 1.2 1.39a3.19 3.19 0 0 0 1.74.515h19.5c.616 0 1.218-.179 1.738-.517.52-.337.937-.82 1.2-1.39l-10.676-6.711L12 15.768l-2.013-1.261v.001Zm5.583-.976L25 19.46V7.62l-9.43 5.91v.002Z" fill="#23A6F0"/></g><defs><clipPath id="a"><path fill="#fff" d="M0 0h24v26H0z"/></clipPath></defs></svg>