<svg width="19" height="20" viewBox="0 0 19 20" fill="none" xmlns="http://www.w3.org/2000/svg">
<path d="M18.5964 7.41964C18.5387 7.24983 18.4326 7.10061 18.2911 6.99043C18.1496 6.88024 17.979 6.81389 17.8002 6.79959L12.5711 6.38408L10.3083 1.37506C10.2362 1.21373 10.119 1.07671 9.97076 0.980522C9.82254 0.884337 9.64965 0.833105 9.47296 0.833008C9.29626 0.832911 9.12332 0.883954 8.97499 0.979976C8.82666 1.076 8.7093 1.2129 8.63706 1.37415L6.37424 6.38408L1.14509 6.79959C0.969398 6.8135 0.801437 6.87774 0.661299 6.98462C0.521161 7.0915 0.414781 7.23648 0.354886 7.40224C0.294991 7.56799 0.284117 7.74749 0.323564 7.91926C0.363012 8.09103 0.451111 8.2478 0.577322 8.37081L4.44163 12.1379L3.07495 18.0559C3.03345 18.235 3.04675 18.4225 3.11313 18.594C3.1795 18.7655 3.29588 18.913 3.44717 19.0175C3.59845 19.1221 3.77766 19.1787 3.96153 19.1801C4.14541 19.1815 4.32546 19.1276 4.47832 19.0254L9.47266 15.6958L14.467 19.0254C14.6232 19.1291 14.8075 19.1825 14.995 19.1784C15.1825 19.1743 15.3642 19.1129 15.5158 19.0024C15.6673 18.8919 15.7814 18.7377 15.8426 18.5604C15.9039 18.3832 15.9094 18.1914 15.8584 18.0109L14.1808 12.1406L18.3414 8.39649C18.6138 8.15067 18.7138 7.76727 18.5964 7.41964Z" fill="#F3CD03"/>
</svg>
